# Blender 4.0.2
# www.blender.org
mtllib test.mtl
o Cube
v -0.012700 0.000031 0.012929
v -0.012700 0.050831 0.012929
v -0.012700 0.000031 -0.012471
v -0.012700 0.050831 -0.012471
v 0.012700 0.000031 0.012929
v 0.012700 0.050831 0.012929
v 0.012700 0.000031 -0.012471
v 0.012700 0.050831 -0.012471
vn -1.0000 -0.0000 -0.0000
vn -0.0000 -0.0000 -1.0000
vn 1.0000 -0.0000 -0.0000
vn -0.0000 -0.0000 1.0000
vn -0.0000 -1.0000 -0.0000
vn -0.0000 1.0000 -0.0000
vt 0.375000 0.000000
vt 0.625000 0.000000
vt 0.625000 0.250000
vt 0.375000 0.250000
vt 0.625000 0.500000
vt 0.375000 0.500000
vt 0.625000 0.750000
vt 0.375000 0.750000
vt 0.625000 1.000000
vt 0.375000 1.000000
vt 0.125000 0.500000
vt 0.125000 0.750000
vt 0.875000 0.500000
vt 0.875000 0.750000
s 0
f 1/1/1 2/2/1 4/3/1 3/4/1
f 3/4/2 4/3/2 8/5/2 7/6/2
f 7/6/3 8/5/3 6/7/3 5/8/3
f 5/8/4 6/7/4 2/9/4 1/10/4
f 3/11/5 7/6/5 5/8/5 1/12/5
f 8/5/6 4/13/6 2/14/6 6/7/6
o Cylinder
v 0.000000 -0.002250 -0.032000
v -0.000000 0.002250 -0.029865
v 0.003137 -0.002250 -0.031846
v 0.002927 0.002250 -0.029721
v 0.006243 -0.002250 -0.031385
v 0.005826 0.002250 -0.029291
v 0.009289 -0.002250 -0.030622
v 0.008669 0.002250 -0.028579
v 0.012246 -0.002250 -0.029564
v 0.011429 0.002250 -0.027592
v 0.015085 -0.002250 -0.028221
v 0.014078 0.002250 -0.026339
v 0.017778 -0.002250 -0.026607
v 0.016592 0.002250 -0.024832
v 0.020301 -0.002250 -0.024736
v 0.018946 0.002250 -0.023086
v 0.022627 -0.002250 -0.022627
v 0.021118 0.002250 -0.021118
v 0.024736 -0.002250 -0.020301
v 0.023086 0.002250 -0.018946
v 0.026607 -0.002250 -0.017778
v 0.024832 0.002250 -0.016592
v 0.028221 -0.002250 -0.015085
v 0.026339 0.002250 -0.014078
v 0.029564 -0.002250 -0.012246
v 0.027592 0.002250 -0.011429
v 0.030622 -0.002250 -0.009289
v 0.028579 0.002250 -0.008669
v 0.031385 -0.002250 -0.006243
v 0.029291 0.002250 -0.005826
v 0.031846 -0.002250 -0.003137
v 0.029721 0.002250 -0.002927
v 0.032000 -0.002250 0.000000
v 0.029865 0.002250 -0.000000
v 0.031846 -0.002250 0.003137
v 0.029721 0.002250 0.002927
v 0.031385 -0.002250 0.006243
v 0.029291 0.002250 0.005826
v 0.030622 -0.002250 0.009289
v 0.028579 0.002250 0.008669
v 0.029564 -0.002250 0.012246
v 0.027592 0.002250 0.011429
v 0.028221 -0.002250 0.015085
v 0.026339 0.002250 0.014078
v 0.026607 -0.002250 0.017778
v 0.024832 0.002250 0.016592
v 0.024736 -0.002250 0.020301
v 0.023086 0.002250 0.018946
v 0.022627 -0.002250 0.022627
v 0.021118 0.002250 0.021118
v 0.020301 -0.002250 0.024736
v 0.018946 0.002250 0.023086
v 0.017778 -0.002250 0.026607
v 0.016592 0.002250 0.024832
v 0.015085 -0.002250 0.028221
v 0.014078 0.002250 0.026339
v 0.012246 -0.002250 0.029564
v 0.011429 0.002250 0.027592
v 0.009289 -0.002250 0.030622
v 0.008669 0.002250 0.028579
v 0.006243 -0.002250 0.031385
v 0.005826 0.002250 0.029291
v 0.003137 -0.002250 0.031846
v 0.002927 0.002250 0.029721
v 0.000000 -0.002250 0.032000
v -0.000000 0.002250 0.029865
v -0.003137 -0.002250 0.031846
v -0.002927 0.002250 0.029721
v -0.006243 -0.002250 0.031385
v -0.005826 0.002250 0.029291
v -0.009289 -0.002250 0.030622
v -0.008669 0.002250 0.028579
v -0.012246 -0.002250 0.029564
v -0.011429 0.002250 0.027592
v -0.015085 -0.002250 0.028221
v -0.014078 0.002250 0.026339
v -0.017778 -0.002250 0.026607
v -0.016592 0.002250 0.024832
v -0.020301 -0.002250 0.024736
v -0.018946 0.002250 0.023086
v -0.022627 -0.002250 0.022627
v -0.021118 0.002250 0.021118
v -0.024736 -0.002250 0.020301
v -0.023086 0.002250 0.018946
v -0.026607 -0.002250 0.017778
v -0.024832 0.002250 0.016592
v -0.028221 -0.002250 0.015085
v -0.026339 0.002250 0.014078
v -0.029564 -0.002250 0.012246
v -0.027592 0.002250 0.011429
v -0.030622 -0.002250 0.009289
v -0.028579 0.002250 0.008669
v -0.031385 -0.002250 0.006243
v -0.029291 0.002250 0.005826
v -0.031846 -0.002250 0.003137
v -0.029721 0.002250 0.002927
v -0.032000 -0.002250 0.000000
v -0.029865 0.002250 -0.000000
v -0.031846 -0.002250 -0.003137
v -0.029721 0.002250 -0.002927
v -0.031385 -0.002250 -0.006243
v -0.029291 0.002250 -0.005826
v -0.030622 -0.002250 -0.009289
v -0.028579 0.002250 -0.008669
v -0.029564 -0.002250 -0.012246
v -0.027592 0.002250 -0.011429
v -0.028221 -0.002250 -0.015085
v -0.026339 0.002250 -0.014078
v -0.026607 -0.002250 -0.017778
v -0.024832 0.002250 -0.016592
v -0.024736 -0.002250 -0.020301
v -0.023086 0.002250 -0.018946
v -0.022627 -0.002250 -0.022627
v -0.021118 0.002250 -0.021118
v -0.020301 -0.002250 -0.024736
v -0.018946 0.002250 -0.023086
v -0.017778 -0.002250 -0.026607
v -0.016592 0.002250 -0.024832
v -0.015085 -0.002250 -0.028221
v -0.014078 0.002250 -0.026339
v -0.012246 -0.002250 -0.029564
v -0.011429 0.002250 -0.027592
v -0.009289 -0.002250 -0.030622
v -0.008669 0.002250 -0.028579
v -0.006243 -0.002250 -0.031385
v -0.005826 0.002250 -0.029291
v -0.003137 -0.002250 -0.031846
v -0.002927 0.002250 -0.029721
vn 0.0443 0.4282 -0.9026
vn 0.1326 0.4282 -0.8939
vn 0.2196 0.4282 -0.8766
vn 0.3044 0.4282 -0.8509
vn 0.3864 0.4282 -0.8169
vn 0.4646 0.4282 -0.7751
vn 0.5383 0.4282 -0.7258
vn 0.6069 0.4282 -0.6696
vn 0.6696 0.4282 -0.6069
vn 0.7258 0.4282 -0.5383
vn 0.7751 0.4282 -0.4646
vn 0.8169 0.4282 -0.3864
vn 0.8509 0.4282 -0.3044
vn 0.8766 0.4282 -0.2196
vn 0.8939 0.4282 -0.1326
vn 0.9026 0.4282 -0.0443
vn 0.9026 0.4282 0.0443
vn 0.8939 0.4282 0.1326
vn 0.8766 0.4282 0.2196
vn 0.8509 0.4282 0.3044
vn 0.8169 0.4282 0.3864
vn 0.7751 0.4282 0.4646
vn 0.7258 0.4282 0.5383
vn 0.6696 0.4282 0.6069
vn 0.6069 0.4282 0.6696
vn 0.5383 0.4282 0.7258
vn 0.4646 0.4282 0.7751
vn 0.3864 0.4282 0.8169
vn 0.3044 0.4282 0.8509
vn 0.2196 0.4282 0.8766
vn 0.1326 0.4282 0.8939
vn 0.0443 0.4282 0.9026
vn -0.0443 0.4282 0.9026
vn -0.1326 0.4282 0.8939
vn -0.2196 0.4282 0.8766
vn -0.3044 0.4282 0.8509
vn -0.3864 0.4282 0.8169
vn -0.4646 0.4282 0.7751
vn -0.5383 0.4282 0.7258
vn -0.6069 0.4282 0.6696
vn -0.6696 0.4282 0.6069
vn -0.7258 0.4282 0.5383
vn -0.7751 0.4282 0.4646
vn -0.8169 0.4282 0.3864
vn -0.8509 0.4282 0.3044
vn -0.8766 0.4282 0.2196
vn -0.8939 0.4282 0.1326
vn -0.9026 0.4282 0.0443
vn -0.9026 0.4282 -0.0443
vn -0.8939 0.4282 -0.1326
vn -0.8766 0.4282 -0.2196
vn -0.8509 0.4282 -0.3044
vn -0.8169 0.4282 -0.3864
vn -0.7751 0.4282 -0.4646
vn -0.7258 0.4282 -0.5383
vn -0.6696 0.4282 -0.6069
vn -0.6069 0.4282 -0.6696
vn -0.5383 0.4282 -0.7258
vn -0.4646 0.4282 -0.7751
vn -0.3864 0.4282 -0.8169
vn -0.3044 0.4282 -0.8509
vn -0.2196 0.4282 -0.8766
vn -0.0000 1.0000 -0.0000
vn -0.1326 0.4282 -0.8939
vn -0.0443 0.4282 -0.9026
vn -0.0000 -1.0000 -0.0000
vt 1.000000 0.500000
vt 1.000000 1.000000
vt 0.984375 1.000000
vt 0.984375 0.500000
vt 0.968750 1.000000
vt 0.968750 0.500000
vt 0.953125 1.000000
vt 0.953125 0.500000
vt 0.937500 1.000000
vt 0.937500 0.500000
vt 0.921875 1.000000
vt 0.921875 0.500000
vt 0.906250 1.000000
vt 0.906250 0.500000
vt 0.890625 1.000000
vt 0.890625 0.500000
vt 0.875000 1.000000
vt 0.875000 0.500000
vt 0.859375 1.000000
vt 0.859375 0.500000
vt 0.843750 1.000000
vt 0.843750 0.500000
vt 0.828125 1.000000
vt 0.828125 0.500000
vt 0.812500 1.000000
vt 0.812500 0.500000
vt 0.796875 1.000000
vt 0.796875 0.500000
vt 0.781250 1.000000
vt 0.781250 0.500000
vt 0.765625 1.000000
vt 0.765625 0.500000
vt 0.750000 1.000000
vt 0.750000 0.500000
vt 0.734375 1.000000
vt 0.734375 0.500000
vt 0.718750 1.000000
vt 0.718750 0.500000
vt 0.703125 1.000000
vt 0.703125 0.500000
vt 0.687500 1.000000
vt 0.687500 0.500000
vt 0.671875 1.000000
vt 0.671875 0.500000
vt 0.656250 1.000000
vt 0.656250 0.500000
vt 0.640625 1.000000
vt 0.640625 0.500000
vt 0.625000 1.000000
vt 0.625000 0.500000
vt 0.609375 1.000000
vt 0.609375 0.500000
vt 0.593750 1.000000
vt 0.593750 0.500000
vt 0.578125 1.000000
vt 0.578125 0.500000
vt 0.562500 1.000000
vt 0.562500 0.500000
vt 0.546875 1.000000
vt 0.546875 0.500000
vt 0.531250 1.000000
vt 0.531250 0.500000
vt 0.515625 1.000000
vt 0.515625 0.500000
vt 0.500000 1.000000
vt 0.500000 0.500000
vt 0.484375 1.000000
vt 0.484375 0.500000
vt 0.468750 1.000000
vt 0.468750 0.500000
vt 0.453125 1.000000
vt 0.453125 0.500000
vt 0.437500 1.000000
vt 0.437500 0.500000
vt 0.421875 1.000000
vt 0.421875 0.500000
vt 0.406250 1.000000
vt 0.406250 0.500000
vt 0.390625 1.000000
vt 0.390625 0.500000
vt 0.375000 1.000000
vt 0.375000 0.500000
vt 0.359375 1.000000
vt 0.359375 0.500000
vt 0.343750 1.000000
vt 0.343750 0.500000
vt 0.328125 1.000000
vt 0.328125 0.500000
vt 0.312500 1.000000
vt 0.312500 0.500000
vt 0.296875 1.000000
vt 0.296875 0.500000
vt 0.281250 1.000000
vt 0.281250 0.500000
vt 0.265625 1.000000
vt 0.265625 0.500000
vt 0.250000 1.000000
vt 0.250000 0.500000
vt 0.234375 1.000000
vt 0.234375 0.500000
vt 0.218750 1.000000
vt 0.218750 0.500000
vt 0.203125 1.000000
vt 0.203125 0.500000
vt 0.187500 1.000000
vt 0.187500 0.500000
vt 0.171875 1.000000
vt 0.171875 0.500000
vt 0.156250 1.000000
vt 0.156250 0.500000
vt 0.140625 1.000000
vt 0.140625 0.500000
vt 0.125000 1.000000
vt 0.125000 0.500000
vt 0.109375 1.000000
vt 0.109375 0.500000
vt 0.093750 1.000000
vt 0.093750 0.500000
vt 0.078125 1.000000
vt 0.078125 0.500000
vt 0.062500 1.000000
vt 0.062500 0.500000
vt 0.046875 1.000000
vt 0.046875 0.500000
vt 0.031250 1.000000
vt 0.031250 0.500000
vt 0.273524 0.488844
vt 0.250000 0.490000
vt 0.226476 0.488844
vt 0.203178 0.485388
vt 0.180332 0.479666
vt 0.158156 0.471731
vt 0.136865 0.461661
vt 0.116663 0.449553
vt 0.097746 0.435522
vt 0.080294 0.419706
vt 0.064477 0.402254
vt 0.050447 0.383337
vt 0.038339 0.363135
vt 0.028269 0.341844
vt 0.020334 0.319668
vt 0.014612 0.296822
vt 0.011156 0.273524
vt 0.010000 0.250000
vt 0.011156 0.226476
vt 0.014612 0.203178
vt 0.020334 0.180332
vt 0.028269 0.158156
vt 0.038339 0.136865
vt 0.050447 0.116663
vt 0.064477 0.097746
vt 0.080294 0.080294
vt 0.097746 0.064477
vt 0.116663 0.050447
vt 0.136865 0.038339
vt 0.158156 0.028269
vt 0.180332 0.020334
vt 0.203178 0.014612
vt 0.226476 0.011156
vt 0.250000 0.010000
vt 0.273524 0.011156
vt 0.296822 0.014612
vt 0.319668 0.020334
vt 0.341844 0.028269
vt 0.363135 0.038339
vt 0.383337 0.050447
vt 0.402254 0.064477
vt 0.419706 0.080294
vt 0.435522 0.097746
vt 0.449553 0.116663
vt 0.461661 0.136865
vt 0.471731 0.158156
vt 0.479666 0.180332
vt 0.485388 0.203178
vt 0.488844 0.226476
vt 0.490000 0.250000
vt 0.488844 0.273524
vt 0.485388 0.296822
vt 0.479666 0.319668
vt 0.471731 0.341844
vt 0.461661 0.363135
vt 0.449553 0.383337
vt 0.435522 0.402254
vt 0.419706 0.419706
vt 0.402254 0.435522
vt 0.383337 0.449553
vt 0.363135 0.461661
vt 0.341844 0.471731
vt 0.319668 0.479666
vt 0.296822 0.485388
vt 0.015625 1.000000
vt 0.015625 0.500000
vt 0.000000 1.000000
vt 0.000000 0.500000
vt 0.750000 0.490000
vt 0.773524 0.488844
vt 0.796822 0.485388
vt 0.819668 0.479666
vt 0.841844 0.471731
vt 0.863135 0.461661
vt 0.883337 0.449553
vt 0.902254 0.435522
vt 0.919706 0.419706
vt 0.935522 0.402254
vt 0.949553 0.383337
vt 0.961661 0.363135
vt 0.971731 0.341844
vt 0.979666 0.319668
vt 0.985388 0.296822
vt 0.988844 0.273524
vt 0.990000 0.250000
vt 0.988844 0.226476
vt 0.985388 0.203178
vt 0.979666 0.180332
vt 0.971731 0.158156
vt 0.961661 0.136865
vt 0.949553 0.116663
vt 0.935522 0.097746
vt 0.919706 0.080294
vt 0.902254 0.064477
vt 0.883337 0.050447
vt 0.863135 0.038339
vt 0.841844 0.028269
vt 0.819668 0.020334
vt 0.796822 0.014612
vt 0.773524 0.011156
vt 0.750000 0.010000
vt 0.726476 0.011156
vt 0.703178 0.014612
vt 0.680332 0.020334
vt 0.658156 0.028269
vt 0.636865 0.038339
vt 0.616663 0.050447
vt 0.597746 0.064477
vt 0.580294 0.080294
vt 0.564478 0.097746
vt 0.550447 0.116663
vt 0.538339 0.136865
vt 0.528269 0.158156
vt 0.520334 0.180332
vt 0.514612 0.203178
vt 0.511156 0.226476
vt 0.510000 0.250000
vt 0.511156 0.273524
vt 0.514612 0.296822
vt 0.520334 0.319668
vt 0.528269 0.341844
vt 0.538339 0.363135
vt 0.550447 0.383337
vt 0.564478 0.402254
vt 0.580294 0.419706
vt 0.597746 0.435522
vt 0.616663 0.449553
vt 0.636865 0.461661
vt 0.658156 0.471731
vt 0.680332 0.479666
vt 0.703178 0.485388
vt 0.726476 0.488844
s 0
f 9/15/7 10/16/7 12/17/7 11/18/7
f 11/18/8 12/17/8 14/19/8 13/20/8
f 13/20/9 14/19/9 16/21/9 15/22/9
f 15/22/10 16/21/10 18/23/10 17/24/10
f 17/24/11 18/23/11 20/25/11 19/26/11
f 19/26/12 20/25/12 22/27/12 21/28/12
f 21/28/13 22/27/13 24/29/13 23/30/13
f 23/30/14 24/29/14 26/31/14 25/32/14
f 25/32/15 26/31/15 28/33/15 27/34/15
f 27/34/16 28/33/16 30/35/16 29/36/16
f 29/36/17 30/35/17 32/37/17 31/38/17
f 31/38/18 32/37/18 34/39/18 33/40/18
f 33/40/19 34/39/19 36/41/19 35/42/19
f 35/42/20 36/41/20 38/43/20 37/44/20
f 37/44/21 38/43/21 40/45/21 39/46/21
f 39/46/22 40/45/22 42/47/22 41/48/22
f 41/48/23 42/47/23 44/49/23 43/50/23
f 43/50/24 44/49/24 46/51/24 45/52/24
f 45/52/25 46/51/25 48/53/25 47/54/25
f 47/54/26 48/53/26 50/55/26 49/56/26
f 49/56/27 50/55/27 52/57/27 51/58/27
f 51/58/28 52/57/28 54/59/28 53/60/28
f 53/60/29 54/59/29 56/61/29 55/62/29
f 55/62/30 56/61/30 58/63/30 57/64/30
f 57/64/31 58/63/31 60/65/31 59/66/31
f 59/66/32 60/65/32 62/67/32 61/68/32
f 61/68/33 62/67/33 64/69/33 63/70/33
f 63/70/34 64/69/34 66/71/34 65/72/34
f 65/72/35 66/71/35 68/73/35 67/74/35
f 67/74/36 68/73/36 70/75/36 69/76/36
f 69/76/37 70/75/37 72/77/37 71/78/37
f 71/78/38 72/77/38 74/79/38 73/80/38
f 73/80/39 74/79/39 76/81/39 75/82/39
f 75/82/40 76/81/40 78/83/40 77/84/40
f 77/84/41 78/83/41 80/85/41 79/86/41
f 79/86/42 80/85/42 82/87/42 81/88/42
f 81/88/43 82/87/43 84/89/43 83/90/43
f 83/90/44 84/89/44 86/91/44 85/92/44
f 85/92/45 86/91/45 88/93/45 87/94/45
f 87/94/46 88/93/46 90/95/46 89/96/46
f 89/96/47 90/95/47 92/97/47 91/98/47
f 91/98/48 92/97/48 94/99/48 93/100/48
f 93/100/49 94/99/49 96/101/49 95/102/49
f 95/102/50 96/101/50 98/103/50 97/104/50
f 97/104/51 98/103/51 100/105/51 99/106/51
f 99/106/52 100/105/52 102/107/52 101/108/52
f 101/108/53 102/107/53 104/109/53 103/110/53
f 103/110/54 104/109/54 106/111/54 105/112/54
f 105/112/55 106/111/55 108/113/55 107/114/55
f 107/114/56 108/113/56 110/115/56 109/116/56
f 109/116/57 110/115/57 112/117/57 111/118/57
f 111/118/58 112/117/58 114/119/58 113/120/58
f 113/120/59 114/119/59 116/121/59 115/122/59
f 115/122/60 116/121/60 118/123/60 117/124/60
f 117/124/61 118/123/61 120/125/61 119/126/61
f 119/126/62 120/125/62 122/127/62 121/128/62
f 121/128/63 122/127/63 124/129/63 123/130/63
f 123/130/64 124/129/64 126/131/64 125/132/64
f 125/132/65 126/131/65 128/133/65 127/134/65
f 127/134/66 128/133/66 130/135/66 129/136/66
f 129/136/67 130/135/67 132/137/67 131/138/67
f 131/138/68 132/137/68 134/139/68 133/140/68
f 12/141/69 10/142/69 136/143/69 134/144/69 132/145/69 130/146/69 128/147/69 126/148/69 124/149/69 122/150/69 120/151/69 118/152/69 116/153/69 114/154/69 112/155/69 110/156/69 108/157/69 106/158/69 104/159/69 102/160/69 100/161/69 98/162/69 96/163/69 94/164/69 92/165/69 90/166/69 88/167/69 86/168/69 84/169/69 82/170/69 80/171/69 78/172/69 76/173/69 74/174/69 72/175/69 70/176/69 68/177/69 66/178/69 64/179/69 62/180/69 60/181/69 58/182/69 56/183/69 54/184/69 52/185/69 50/186/69 48/187/69 46/188/69 44/189/69 42/190/69 40/191/69 38/192/69 36/193/69 34/194/69 32/195/69 30/196/69 28/197/69 26/198/69 24/199/69 22/200/69 20/201/69 18/202/69 16/203/69 14/204/69
f 133/140/70 134/139/70 136/205/70 135/206/70
f 135/206/71 136/205/71 10/207/71 9/208/71
f 9/209/72 11/210/72 13/211/72 15/212/72 17/213/72 19/214/72 21/215/72 23/216/72 25/217/72 27/218/72 29/219/72 31/220/72 33/221/72 35/222/72 37/223/72 39/224/72 41/225/72 43/226/72 45/227/72 47/228/72 49/229/72 51/230/72 53/231/72 55/232/72 57/233/72 59/234/72 61/235/72 63/236/72 65/237/72 67/238/72 69/239/72 71/240/72 73/241/72 75/242/72 77/243/72 79/244/72 81/245/72 83/246/72 85/247/72 87/248/72 89/249/72 91/250/72 93/251/72 95/252/72 97/253/72 99/254/72 101/255/72 103/256/72 105/257/72 107/258/72 109/259/72 111/260/72 113/261/72 115/262/72 117/263/72 119/264/72 121/265/72 123/266/72 125/267/72 127/268/72 129/269/72 131/270/72 133/271/72 135/272/72
